<?xml version="1.0" encoding="UTF-8"?>
<svg id="uuid-6751e67c-99fe-48f1-adda-a45b6c225428" data-name="Capa 2" xmlns="http://www.w3.org/2000/svg" xmlns:xlink="http://www.w3.org/1999/xlink" viewBox="0 0 339 65.9">
  <defs>
    <style>
      .uuid-e037f261-b457-4cde-8f38-6e6809e64e5e {
        fill: none;
      }

      .uuid-7c5daa4d-6195-444f-804c-c58707722c44 {
        clip-path: url(#uuid-ae242a31-b064-4d5b-b990-003b353a2af2);
      }

      .uuid-896ba3c8-90db-4f62-a52d-6b2198ffd1a3 {
        fill: #a91832;
      }

      .uuid-de994cbc-9352-4992-844f-d8b9e7a2d0f3 {
        clip-path: url(#uuid-e8cafec8-2621-428b-8d36-70028a40d49d);
      }

      .uuid-59d6b4d5-2951-415d-bcd8-b08793eed559 {
        fill: #e4233c;
      }

      .uuid-359cd7b5-0d90-4b4f-bae7-498612cd65b6 {
        fill: #1f201e;
      }
    </style>
    <clipPath id="uuid-ae242a31-b064-4d5b-b990-003b353a2af2">
      <rect class="uuid-e037f261-b457-4cde-8f38-6e6809e64e5e" width="339" height="65.9"/>
    </clipPath>
    <clipPath id="uuid-e8cafec8-2621-428b-8d36-70028a40d49d">
      <rect class="uuid-e037f261-b457-4cde-8f38-6e6809e64e5e" y="0" width="339" height="65.9"/>
    </clipPath>
  </defs>
  <g id="uuid-87bf1c7d-4801-4fa4-9666-1f399c9297cd" data-name="Capa 1">
    <g id="uuid-fe4036c7-c08d-4794-a741-d2f5f01fcaa6" data-name="Logo Pentafon">
      <g class="uuid-7c5daa4d-6195-444f-804c-c58707722c44">
        <g class="uuid-de994cbc-9352-4992-844f-d8b9e7a2d0f3">
          <path class="uuid-896ba3c8-90db-4f62-a52d-6b2198ffd1a3" d="M11.6,38.4c-5.4,4.5-6.7,12.1-2.3,18.2,1.8,2.5,4.6,5.2,7.6,6.3,3.6,1.3,7.4,2,11.2,2.4,11.5,1.3,24.5.2,35.2-4.5,10.7-4.8,18.8-10.7,18.8-10.7l-14.7,3.7s-5.9,1.4-8.7,1.5c-7.4.2-15,.5-22.2-1.5-4.7-1.3-9.4-3.2-13.6-5.8-2.2-1.4-4.2-3-6.2-4.8-1.4-1.3-3.6-3.5-5-4.9"/>
          <path class="uuid-896ba3c8-90db-4f62-a52d-6b2198ffd1a3" d="M71.9,30.1c.6,0,1.2,0,1.8,0,1.3,0,2.7,0,4-.3,1.4-.2,2.8-.6,4-1.3.3-.2.5-.4.8-.6.1-.1.2-.2.3-.3.1-.1.2-.3.3-.1.2.6.3,1.3.5,1.9.1.6.3,1.3.4,1.9.2,1.5.5,3,.5,4.5,0,2.4,0,4.7-.8,6.9-.7,1.9-1.5,3.9-3,5.1-1.1.9-2.6,1.3-4,1.4-.4,0-4.6.2-4.6,0-.1-1.1,0-2.2,0-3.3v-12.8c0-.2,0-3.3,0-3.3"/>
          <path class="uuid-59d6b4d5-2951-415d-bcd8-b08793eed559" d="M81.5,47.5s2.7-1.6,3.9-2.5c1.6-1.3,3.2-2.7,4.3-4.5,1.8-2.9,2.2-6.6,1.7-10-.7-5-2.8-9.7-5.9-13.6-.6-.7-1.2-1.4-1.8-2.1-2.6-2.7-6-5-9.5-6.6-2.4-1-4.8-1.9-7.3-2.5-2.6-.6-5.3-.7-8-.7-.1,0-.3,0-.4,0-1,0-2.1,0-3.1.1-.4,0-.9,0-1.3.2-.1,0-.4.2-.5.2,0,0,11.8.7,24.1,14.4,4.9,5.3,5.9,8.5,6.4,12.6.5,4.3.3,8.9-1.9,12.7-.6,1-1.9,2.4-2.7,3.2.6-.2,2.1-1.1,2.1-1.1"/>
          <path class="uuid-59d6b4d5-2951-415d-bcd8-b08793eed559" d="M39.2,0S11.6,14.5,4.2,29.1C1.8,34.1-.2,39.8,0,45.4c.2,6.4,3.6,11,8.8,14.3,2.3,1.5,5.1,2.5,7.7,3.1-.3-.2-.6-.4-1.9-1.4-.7-.5-1.4-1.1-2.1-1.7-1.3-1.1-2.5-2.4-3.5-3.8-2.2-3.1-2.7-6.7-1.4-10.3.6-1.6,1.5-3.2,2.5-4.6,1.4-1.9,3.1-3.6,4.9-5.1,1.4-1.2,2.9-2.4,4.5-3.4,10.8-7.5,19.7-11.1,19.7-11.1V0Z"/>
          <path class="uuid-359cd7b5-0d90-4b4f-bae7-498612cd65b6" d="M120.6,16c0,6.6-2.2,8.4-8.2,8.4s-3.2-.1-4.6-.3v9.5h-5.4V8c2.9-.3,4.9-.3,9.3-.3,6.8,0,8.9,1.8,8.9,8.3M111.6,20c2.8,0,3.6-.9,3.6-4s-.9-4-3.6-4h-3.8v8h3.8Z"/>
          <path class="uuid-359cd7b5-0d90-4b4f-bae7-498612cd65b6" d="M149.5,33.3c-3.3.4-7.6.4-11.3.4s-5.4-2-5.4-5.1v-15.5c0-3.1,2.1-5.1,5.4-5.1s8,0,11.3.4l-.2,4.2h-9.4c-1.2,0-1.7.6-1.7,1.9v3.9h9.8v4.1h-9.8v4.9c0,1.4.5,1.9,1.7,1.9h9.4l.2,4.1Z"/>
          <path class="uuid-359cd7b5-0d90-4b4f-bae7-498612cd65b6" d="M182.9,31.5c0,1.3-.6,2-1.9,2h-3.4c-1.1,0-1.6-.6-2.2-1.7l-6.4-13.6c-.5-1.1-1.2-2.7-1.5-4h-.4c.2,1.3.2,2.7.2,4.1v15.2h-5.1V10c0-1.3.7-2,2-2h3.3c1.1,0,1.6.6,2.2,1.7l6.2,13.2c.5,1.1,1.2,2.7,1.8,4.1h.4c-.1-1.4-.2-2.8-.2-4.3V8h5.1v23.5Z"/>
          <polygon class="uuid-359cd7b5-0d90-4b4f-bae7-498612cd65b6" points="207.6 12.6 207.6 33.5 202.2 33.5 202.2 12.6 194.8 12.6 194.8 8 214.9 8 214.9 12.6 207.6 12.6"/>
          <path class="uuid-359cd7b5-0d90-4b4f-bae7-498612cd65b6" d="M229.6,26.8l-1.8,6.7h-5.5l7.1-24c.2-.9,1-1.5,1.9-1.5h5.1c.9,0,1.7.6,1.9,1.5l7.1,24h-5.5l-1.8-6.7h-8.4ZM234.8,14.6c-.2-.8-.4-1.6-.5-2.4h-1l-.5,2.4-2.1,7.8h6.1l-2.1-7.8Z"/>
          <path class="uuid-359cd7b5-0d90-4b4f-bae7-498612cd65b6" d="M263.9,12.4c-1.4,0-1.9.6-1.9,1.9v4.4h9.4v4.1h-9.4v10.7h-5.4V13.2c0-3.3,2.1-5.3,5.4-5.3s7.8,0,11,.4l-.3,4.1h-8.8Z"/>
          <path class="uuid-359cd7b5-0d90-4b4f-bae7-498612cd65b6" d="M305.1,20.8c0,10.2-2.8,13.2-10.5,13.2s-10.5-3-10.5-13.2,2.7-13.2,10.5-13.2,10.5,3,10.5,13.2M289.9,20.8c0,6.8,1.1,8.7,4.8,8.7s4.8-1.9,4.8-8.7-1.1-8.7-4.8-8.7-4.8,1.9-4.8,8.7"/>
          <path class="uuid-359cd7b5-0d90-4b4f-bae7-498612cd65b6" d="M338.7,31.5c0,1.3-.6,2-1.9,2h-3.4c-1.1,0-1.6-.6-2.2-1.7l-6.4-13.6c-.5-1.1-1.2-2.7-1.5-4h-.4c.2,1.3.2,2.7.2,4.1v15.2h-5.1V10c0-1.3.7-2,1.9-2h3.3c1.1,0,1.6.6,2.2,1.7l6.2,13.2c.5,1.1,1.2,2.7,1.8,4.1h.4c-.1-1.4-.2-2.8-.2-4.3V8h5.1v23.5Z"/>
          <path class="uuid-59d6b4d5-2951-415d-bcd8-b08793eed559" d="M109.9,60.6l.2,1.9c-.9.2-1.9.4-3,.4s-1.2,0-1.7-.2c-.5-.1-.9-.3-1.3-.5-.4-.2-.7-.5-.9-.8-.2-.3-.4-.7-.6-1.2-.1-.5-.2-1-.3-1.6,0-.6,0-1.2,0-2s0-1.1,0-1.5c0-.5,0-.9.2-1.3,0-.4.2-.8.3-1.1.1-.3.3-.6.5-.9.2-.3.4-.5.6-.7.2-.2.5-.3.8-.5.3-.1.7-.2,1.1-.3.4,0,.8,0,1.3,0,1.1,0,2.2.1,3,.4l-.2,1.9c-.8-.1-1.6-.2-2.4-.2s-.5,0-.8,0c-.2,0-.4,0-.6.2-.2,0-.3.2-.5.2-.1,0-.3.2-.4.3-.1.1-.2.3-.3.4,0,.1-.1.3-.2.5,0,.2,0,.4-.1.5s0,.4,0,.6c0,.3,0,.5,0,.6,0,.2,0,.4,0,.7,0,.4,0,.8,0,1,0,.2,0,.5,0,.9,0,.3,0,.6.2.8,0,.2.2.4.3.6.1.2.3.4.5.5.2.1.4.2.7.3.3,0,.6.1,1,.1.8,0,1.6,0,2.4-.2"/>
          <path class="uuid-59d6b4d5-2951-415d-bcd8-b08793eed559" d="M119.9,62.7c-.5.1-1,.2-1.6.2s-1.1,0-1.6-.2-.9-.3-1.2-.5c-.3-.2-.6-.5-.9-.8-.2-.3-.4-.7-.6-1.2-.1-.5-.2-1-.3-1.6,0-.6,0-1.2,0-2s0-1.4,0-2c0-.6.2-1.1.3-1.6.1-.5.3-.9.6-1.2.2-.3.5-.6.9-.8.3-.2.7-.4,1.2-.5.5-.1,1-.2,1.6-.2s1.1,0,1.6.2c.5.1.9.3,1.2.5.3.2.6.5.9.8.2.3.4.7.6,1.2.1.5.2,1,.3,1.6,0,.6,0,1.3,0,2s0,1.4,0,2c0,.6-.2,1.1-.3,1.6-.1.5-.3.9-.6,1.2-.2.3-.5.6-.9.8-.3.2-.7.4-1.2.5M117.7,60.8c.2,0,.4,0,.7,0s.5,0,.7,0c.2,0,.4-.1.5-.2.1,0,.3-.2.4-.3.1-.1.2-.3.3-.4,0-.1.1-.3.2-.5,0-.2,0-.4.1-.6,0-.2,0-.4,0-.7,0-.3,0-.5,0-.7,0-.2,0-.5,0-.8s0-.6,0-.8c0-.2,0-.4,0-.7s0-.5,0-.7c0-.2,0-.4-.1-.6,0-.2-.1-.4-.2-.5,0-.1-.2-.3-.3-.4-.1-.1-.2-.2-.4-.3-.1,0-.3-.1-.5-.2-.2,0-.4,0-.7,0s-.5,0-.7,0c-.2,0-.4.1-.5.2-.1,0-.3.2-.4.3-.1.1-.2.3-.3.4,0,.1-.1.3-.2.5,0,.2,0,.4-.1.6,0,.2,0,.4,0,.7s0,.5,0,.7c0,.2,0,.5,0,.8s0,.6,0,.8c0,.2,0,.4,0,.7,0,.3,0,.5,0,.7,0,.2,0,.4.1.6,0,.2.1.4.2.5,0,.1.2.3.3.4.1.1.2.2.4.3.1,0,.3.1.5.2"/>
          <path class="uuid-59d6b4d5-2951-415d-bcd8-b08793eed559" d="M130.8,51.9l3.7,7.5v-9h2.1v10.5c0,1.2-.5,1.9-1.4,1.9s-.8-.1-1.1-.4c-.3-.2-.6-.7-.9-1.3l-3.7-7.6v9h-2.1v-10.6c0-1.2.5-1.9,1.4-1.9s.8.1,1.1.4.6.7.9,1.2"/>
          <polygon class="uuid-59d6b4d5-2951-415d-bcd8-b08793eed559" points="148.6 50.5 148.6 52.5 145.8 52.5 145.8 62.8 143.4 62.8 143.4 52.5 140.6 52.5 140.6 50.5 148.6 50.5"/>
          <path class="uuid-59d6b4d5-2951-415d-bcd8-b08793eed559" d="M153.1,62.8h-2.4l3.4-10.7c.2-.6.4-1,.8-1.3s.7-.4,1.1-.4c.9,0,1.5.6,1.9,1.7l3.4,10.7h-2.5l-.9-3h-4l-.9,3ZM154.5,57.8h2.9l-1.4-5-1.4,5Z"/>
          <path class="uuid-59d6b4d5-2951-415d-bcd8-b08793eed559" d="M172.1,60.6l.2,1.9c-.9.2-1.9.4-3,.4s-1.2,0-1.7-.2c-.5-.1-.9-.3-1.3-.5-.4-.2-.7-.5-.9-.8-.2-.3-.4-.7-.6-1.2-.1-.5-.2-1-.3-1.6,0-.6,0-1.2,0-2s0-1.1,0-1.5c0-.5,0-.9.2-1.3,0-.4.2-.8.3-1.1.1-.3.3-.6.5-.9.2-.3.4-.5.6-.7.2-.2.5-.3.8-.5.3-.1.7-.2,1.1-.3.4,0,.8,0,1.3,0,1.1,0,2.2.1,3,.4l-.2,1.9c-.8-.1-1.6-.2-2.4-.2s-.5,0-.8,0c-.2,0-.4,0-.6.2-.2,0-.3.2-.5.2-.1,0-.3.2-.4.3-.1.1-.2.3-.3.4,0,.1-.1.3-.2.5,0,.2,0,.4-.1.5s0,.4,0,.6c0,.3,0,.5,0,.6,0,.2,0,.4,0,.7,0,.4,0,.8,0,1,0,.2,0,.5,0,.9,0,.3,0,.6.2.8,0,.2.2.4.3.6.1.2.3.4.5.5.2.1.4.2.7.3.3,0,.6.1,1,.1.8,0,1.6,0,2.4-.2"/>
          <polygon class="uuid-59d6b4d5-2951-415d-bcd8-b08793eed559" points="183.9 50.5 183.9 52.5 181.1 52.5 181.1 62.8 178.7 62.8 178.7 52.5 175.9 52.5 175.9 50.5 183.9 50.5"/>
          <path class="uuid-59d6b4d5-2951-415d-bcd8-b08793eed559" d="M201.5,60.6l.2,1.9c-.9.2-1.9.4-3,.4s-1.2,0-1.7-.2c-.5-.1-.9-.3-1.3-.5-.4-.2-.7-.5-.9-.8-.2-.3-.4-.7-.6-1.2-.1-.5-.2-1-.3-1.6,0-.6,0-1.2,0-2s0-1.1,0-1.5c0-.5,0-.9.2-1.3,0-.4.2-.8.3-1.1.1-.3.3-.6.5-.9.2-.3.4-.5.6-.7.2-.2.5-.3.8-.5.3-.1.7-.2,1.1-.3.4,0,.8,0,1.3,0,1.1,0,2.2.1,3,.4l-.2,1.9c-.8-.1-1.6-.2-2.4-.2s-.5,0-.8,0c-.2,0-.4,0-.6.2-.2,0-.3.2-.5.2-.1,0-.3.2-.4.3-.1.1-.2.3-.3.4,0,.1-.1.3-.2.5,0,.2,0,.4-.1.5s0,.4,0,.6c0,.3,0,.5,0,.6,0,.2,0,.4,0,.7,0,.4,0,.8,0,1,0,.2,0,.5,0,.9,0,.3,0,.6.2.8,0,.2.2.4.3.6.1.2.3.4.5.5.2.1.4.2.7.3.3,0,.6.1,1,.1.8,0,1.6,0,2.4-.2"/>
          <path class="uuid-59d6b4d5-2951-415d-bcd8-b08793eed559" d="M212.9,50.5v1.9h-3.2c-.4,0-.6,0-.8,0-.2,0-.4.1-.5.3-.1.1-.2.3-.2.5,0,.2,0,.5,0,.8v1.4h4.6v2h-4.6v1.6c0,.2,0,.4,0,.6s0,.3,0,.4c0,.1.1.2.2.3,0,0,.2.1.3.2.1,0,.3,0,.4.1.2,0,.4,0,.6,0h3.2v1.9c-1.2,0-2.3,0-3.1,0s-.7,0-.9,0c-.2,0-.5,0-.8,0-.3,0-.6-.1-.8-.2-.2,0-.4-.2-.6-.3-.2-.1-.4-.3-.5-.5-.1-.2-.2-.5-.3-.8,0-.3-.1-.7-.1-1.1v-6.4c0-.4,0-.8.1-1.1,0-.3.2-.6.3-.8.1-.2.3-.4.5-.5.2-.1.4-.3.6-.3.2,0,.5-.1.8-.2.3,0,.6,0,.8,0,.2,0,.5,0,.9,0,1,0,2,0,3.1,0"/>
          <path class="uuid-59d6b4d5-2951-415d-bcd8-b08793eed559" d="M220.8,51.9l3.7,7.5v-9h2.1v10.5c0,1.2-.5,1.9-1.4,1.9s-.8-.1-1.1-.4c-.3-.2-.6-.7-.9-1.3l-3.7-7.6v9h-2.1v-10.6c0-1.2.5-1.9,1.4-1.9s.8.1,1.1.4.6.7.9,1.2"/>
          <polygon class="uuid-59d6b4d5-2951-415d-bcd8-b08793eed559" points="238.7 50.5 238.7 52.5 235.8 52.5 235.8 62.8 233.4 62.8 233.4 52.5 230.6 52.5 230.6 50.5 238.7 50.5"/>
          <path class="uuid-59d6b4d5-2951-415d-bcd8-b08793eed559" d="M249.7,50.5v1.9h-3.2c-.4,0-.6,0-.8,0-.2,0-.4.1-.5.3-.1.1-.2.3-.2.5,0,.2,0,.5,0,.8v1.4h4.6v2h-4.6v1.6c0,.2,0,.4,0,.6s0,.3,0,.4c0,.1.1.2.2.3,0,0,.2.1.3.2.1,0,.3,0,.4.1.2,0,.4,0,.6,0h3.2v1.9c-1.2,0-2.3,0-3.1,0s-.7,0-.9,0c-.2,0-.5,0-.8,0-.3,0-.6-.1-.8-.2-.2,0-.4-.2-.6-.3-.2-.1-.4-.3-.5-.5-.1-.2-.2-.5-.3-.8,0-.3-.1-.7-.1-1.1v-6.4c0-.4,0-.8.1-1.1,0-.3.2-.6.3-.8.1-.2.3-.4.5-.5.2-.1.4-.3.6-.3.2,0,.5-.1.8-.2.3,0,.6,0,.8,0,.2,0,.5,0,.9,0,1,0,2,0,3.1,0"/>
          <path class="uuid-59d6b4d5-2951-415d-bcd8-b08793eed559" d="M256.6,58.1v4.7h-2.3v-12.1c1.2-.2,2.4-.3,3.8-.3s.8,0,1.1,0c.3,0,.6,0,1,.1.3,0,.6.2.9.3.2.1.5.3.7.5.2.2.4.4.6.7.1.3.3.6.3,1,0,.4.1.8.1,1.3s0,1-.2,1.4c-.1.4-.3.8-.4,1.1-.2.3-.4.5-.7.7-.3.2-.6.3-.9.5l2.6,4.9h-2.7l-2.4-4.6c-.4,0-.9,0-1.4,0M256.6,52.4v3.7c.3,0,.8,0,1.4,0s.7,0,1,0c.3,0,.5-.2.7-.3.2-.1.4-.3.5-.6.1-.3.2-.6.2-1,0-.7-.2-1.2-.5-1.5-.3-.3-.9-.4-1.8-.4s-1,0-1.5.1"/>
          <path class="uuid-59d6b4d5-2951-415d-bcd8-b08793eed559" d="M283.4,62.8h-2.7l-.7-.9c-.4.4-.8.6-1.3.8s-1.1.2-1.8.2c-1.3,0-2.3-.3-2.9-.9-.6-.6-1-1.5-1-2.7s.2-1.5.6-2c.4-.5.9-.9,1.7-1.3-.1-.2-.2-.3-.3-.4,0,0-.1-.2-.2-.4-.1-.2-.2-.3-.2-.4,0-.1-.1-.3-.2-.4,0-.2-.1-.3-.1-.5,0-.2,0-.4,0-.6,0-.4,0-.8.2-1.2.1-.3.3-.6.4-.9.2-.2.4-.4.7-.6.3-.2.6-.3.9-.3.3,0,.7,0,1,0s.6,0,.9,0c.3,0,.6.2.8.3.3.1.5.3.7.5.2.2.3.5.5.8.1.3.2.7.2,1.1,0,1.5-.8,2.6-2.3,3.3l1.8,2.1c.2-.4.3-1,.3-1.7h2c0,.8-.2,1.4-.3,1.9-.1.5-.4,1-.6,1.5l2.1,2.4ZM278.8,60.4l-2.4-2.9c-.3.2-.5.4-.7.5-.2.2-.3.4-.4.6,0,.2-.1.5-.1.8s0,.5.2.8c.1.2.3.4.4.5.2.1.4.2.6.3.2,0,.5.1.7.1.7,0,1.2-.2,1.7-.7M278.4,53.4c0-.4,0-.8-.3-1-.2-.2-.5-.3-.8-.3s-.6.1-.8.3c-.2.2-.3.5-.3,1s0,.6.2.9c.1.3.3.5.6.8.2,0,.4-.2.5-.3.1-.1.3-.2.4-.4.1-.1.3-.3.3-.5,0-.2.1-.4.1-.6"/>
          <path class="uuid-59d6b4d5-2951-415d-bcd8-b08793eed559" d="M301,60.6l.2,1.9c-.9.2-1.9.4-3,.4s-1.2,0-1.7-.2c-.5-.1-.9-.3-1.3-.5-.4-.2-.7-.5-.9-.8-.2-.3-.4-.7-.6-1.2-.1-.5-.2-1-.3-1.6s0-1.2,0-2,0-1.1,0-1.5c0-.5,0-.9.2-1.3,0-.4.2-.8.3-1.1.1-.3.3-.6.5-.9.2-.3.4-.5.6-.7.2-.2.5-.3.8-.5.3-.1.7-.2,1.1-.3.4,0,.8,0,1.3,0,1.1,0,2.2.1,3,.4l-.2,1.9c-.8-.1-1.6-.2-2.4-.2s-.5,0-.8,0c-.2,0-.4,0-.6.2-.2,0-.3.2-.5.2-.1,0-.3.2-.4.3-.1.1-.2.3-.3.4,0,.1-.1.3-.2.5,0,.2,0,.4-.1.5,0,.2,0,.4,0,.6,0,.3,0,.5,0,.6,0,.2,0,.4,0,.7,0,.4,0,.8,0,1,0,.2,0,.5,0,.9,0,.3,0,.6.2.8,0,.2.2.4.3.6.1.2.3.4.5.5.2.1.4.2.7.3.3,0,.6.1,1,.1.8,0,1.6,0,2.4-.2"/>
          <polygon class="uuid-59d6b4d5-2951-415d-bcd8-b08793eed559" points="309.9 54.4 312.2 50.5 314.8 50.5 311.2 56.4 315 62.8 312.3 62.8 309.8 58.5 307.4 62.8 304.8 62.8 308.6 56.5 304.9 50.5 307.6 50.5 309.9 54.4"/>
          <path class="uuid-59d6b4d5-2951-415d-bcd8-b08793eed559" d="M323.4,52.4c-.2,0-.3,0-.4,0-.1,0-.3,0-.4,0-.2,0-.3,0-.5,0-.1,0-.3,0-.4.1-.1,0-.3.1-.3.2s-.2.2-.2.3,0,.3,0,.5,0,.4,0,.5c0,.1,0,.3.2.4,0,.1.2.2.3.3.1,0,.2.2.4.2.2,0,.3.1.5.2.2,0,.3.1.6.2,0,0,.1,0,.2,0,.6.2,1.1.3,1.4.5.4.2.7.4,1,.7.3.3.5.6.6,1,.1.4.2.9.2,1.4s0,1.2-.3,1.7c-.2.5-.5.9-.8,1.1-.4.3-.8.5-1.3.6-.5.1-1.1.2-1.8.2-1.1,0-2.2-.1-3.3-.4l.2-2c1.2.2,2.2.3,3,.3s.6,0,.8,0c.2,0,.4-.1.6-.2.2-.1.3-.3.4-.5,0-.2.1-.5.1-.8s0-.3,0-.4c0-.1,0-.2-.1-.3,0,0-.1-.2-.2-.3-.1,0-.2-.2-.3-.2,0,0-.2-.1-.4-.2-.2,0-.3-.1-.4-.1,0,0-.2,0-.4-.1,0,0,0,0,0,0-.3-.1-.6-.2-.8-.3-.2,0-.5-.2-.7-.3-.2-.1-.4-.3-.6-.4-.2-.1-.3-.3-.5-.5-.2-.2-.3-.4-.4-.6,0-.2-.2-.5-.2-.7,0-.3,0-.6,0-.9,0-.7,0-1.2.3-1.7.2-.5.5-.8.8-1.1s.8-.5,1.3-.6c.5-.1,1.1-.2,1.8-.2,1.1,0,2.2.1,3.3.4l-.2,1.9c-1.1-.2-1.9-.3-2.6-.3"/>
          <path class="uuid-59d6b4d5-2951-415d-bcd8-b08793eed559" d="M333,58.2v4.6h-2.3v-12.1c1.2-.2,2.4-.3,3.8-.3s.8,0,1.1,0c.3,0,.6,0,1,.1.3,0,.6.2.9.3.2.1.5.3.7.5.2.2.4.4.6.7.1.3.3.6.3,1,0,.4.1.8.1,1.3s0,.9-.1,1.2c0,.4-.2.7-.3,1-.1.3-.3.5-.5.7-.2.2-.4.4-.7.5-.2.1-.5.2-.8.3-.3,0-.6.1-1,.2-.3,0-.7,0-1.1,0s-1,0-1.5,0M333,52.4v3.8c.3,0,.8,0,1.4,0s.7,0,1,0c.3,0,.5-.2.7-.3.2-.1.4-.4.5-.6.1-.3.1-.6.1-1,0-.7-.2-1.2-.5-1.5-.3-.3-.9-.4-1.8-.4s-1,0-1.5.1"/>
        </g>
      </g>
    </g>
  </g>
</svg>