<?xml version="1.0" encoding="UTF-8"?>
<svg id="uuid-f0aa949b-68e2-418f-ba27-afb18a2a013f" data-name="Capa 2" xmlns="http://www.w3.org/2000/svg" viewBox="0 0 384.5 126.7">
  <defs>
    <style>
      .uuid-a7bb3a2b-25c0-4176-a0c2-35a656619254 {
        fill: none;
        stroke: #e20613;
        stroke-miterlimit: 10;
        stroke-width: 7px;
      }

      .uuid-63ac22d5-acdb-42c4-b834-3929e1148342 {
        fill: #575756;
      }

      .uuid-d5c10684-799e-40e9-99ef-9112128fc4c8 {
        fill: #e20613;
      }
    </style>
  </defs>
  <g id="uuid-656b7eda-9b34-41f7-a9ae-0f774fdd85ef" data-name="Capa 1">
    <g>
      <g>
        <path class="uuid-63ac22d5-acdb-42c4-b834-3929e1148342" d="M40.3,40.8V8.1h9.9v32.6h-9.9Z"/>
        <path class="uuid-63ac22d5-acdb-42c4-b834-3929e1148342" d="M77.4,40.8l-12-17.5v17.5h-9.9V8.1h10.2l11.4,16.4V8.1h9.9v32.6h-9.5Z"/>
        <path class="uuid-63ac22d5-acdb-42c4-b834-3929e1148342" d="M114.1,40.8l-12-17.5v17.5h-9.9V8.1h10.2l11.4,16.4V8.1h9.9v32.6h-9.5Z"/>
        <path class="uuid-63ac22d5-acdb-42c4-b834-3929e1148342" d="M145,7.6c10.1,0,17.9,6.9,17.9,16.9s-7.8,16.9-17.9,16.9-17.9-6.9-17.9-16.9,7.8-16.9,17.9-16.9ZM145,16.3c-4.7,0-7.8,3.6-7.8,8.2s3.1,8.2,7.8,8.2,7.8-3.6,7.8-8.2-3.1-8.2-7.8-8.2Z"/>
        <path class="uuid-63ac22d5-acdb-42c4-b834-3929e1148342" d="M174,40.8l-12-32.6h11.2l7,22,7-22h11.2l-12,32.6h-12.4Z"/>
        <path class="uuid-63ac22d5-acdb-42c4-b834-3929e1148342" d="M220.5,40.8l-1.3-4.2h-12.5l-1.3,4.2h-10.7l12-32.6h12.4l12,32.6h-10.7ZM213,16.8l-3.7,11.5h7.4l-3.7-11.5Z"/>
        <path class="uuid-63ac22d5-acdb-42c4-b834-3929e1148342" d="M237.1,40.8v-24h-8.8v-8.6h27.4v8.6h-8.7v24h-9.9Z"/>
        <path class="uuid-63ac22d5-acdb-42c4-b834-3929e1148342" d="M259.2,40.8V8.1h9.9v32.6h-9.9Z"/>
        <path class="uuid-63ac22d5-acdb-42c4-b834-3929e1148342" d="M290.5,7.6c10.1,0,17.9,6.9,17.9,16.9s-7.8,16.9-17.9,16.9-17.9-6.9-17.9-16.9,7.8-16.9,17.9-16.9ZM290.5,16.3c-4.7,0-7.8,3.6-7.8,8.2s3.1,8.2,7.8,8.2,7.8-3.6,7.8-8.2-3.1-8.2-7.8-8.2Z"/>
        <path class="uuid-63ac22d5-acdb-42c4-b834-3929e1148342" d="M333.8,40.8l-12-17.5v17.5h-9.9V8.1h10.2l11.4,16.4V8.1h9.9v32.6h-9.5Z"/>
      </g>
      <polyline class="uuid-a7bb3a2b-25c0-4176-a0c2-35a656619254" points="91.1 74.1 3.5 74.1 3.5 25.2 33.5 25.2"/>
      <polyline class="uuid-a7bb3a2b-25c0-4176-a0c2-35a656619254" points="299 74.1 381 74.1 381 25.2 351 25.2"/>
      <g>
        <g>
          <path class="uuid-d5c10684-799e-40e9-99ef-9112128fc4c8" d="M98.4,96.6v-50.5h22.5c15.9,0,27.7,9.1,27.7,25.2s-11.8,25.3-27.6,25.3h-22.6ZM113.7,83.3h7.3c7.6,0,12.2-5.6,12.2-12s-3.9-11.9-12.1-11.9h-7.3v23.8Z"/>
          <path class="uuid-d5c10684-799e-40e9-99ef-9112128fc4c8" d="M186.3,96.6l-2-6.5h-19.4l-2,6.5h-16.6l18.6-50.5h19.2l18.6,50.5h-16.6ZM174.6,59.6l-5.8,17.8h11.5l-5.8-17.8Z"/>
          <path class="uuid-d5c10684-799e-40e9-99ef-9112128fc4c8" d="M213.8,96.6v-20.1l-18.9-30.4h17.2l9.4,17,9.2-17h17.2l-18.8,30.4v20.1h-15.3Z"/>
        </g>
        <g>
          <g>
            <path class="uuid-63ac22d5-acdb-42c4-b834-3929e1148342" d="M250.4,70.6v-5.8c11.3-8,12.4-8.9,12.4-10.7s-1.3-1.9-2.9-1.9c-2.6,0-4.6,1-6.5,2.6l-4.1-5c2.9-3,7-4.2,10.4-4.2,6.4,0,10.6,3.6,10.6,8.5s-1.9,6.1-7.8,10h8v6.5h-20.2Z"/>
            <path class="uuid-63ac22d5-acdb-42c4-b834-3929e1148342" d="M272.2,58.3c0-6.7,3.6-12.7,11-12.7s11,6,11,12.7-3.6,12.8-11,12.8-11-6.1-11-12.8ZM286.6,58.3c0-4.2-1.1-6.1-3.4-6.1s-3.4,2-3.4,6.1,1.1,6.2,3.4,6.2,3.4-2,3.4-6.2Z"/>
          </g>
          <g>
            <path class="uuid-63ac22d5-acdb-42c4-b834-3929e1148342" d="M250.4,96.1v-5.8c11.3-8,12.4-8.9,12.4-10.7s-1.3-1.9-2.9-1.9c-2.6,0-4.6,1-6.5,2.6l-4.1-5c2.9-3,7-4.2,10.4-4.2,6.4,0,10.6,3.6,10.6,8.5s-1.9,6.1-7.8,10h8v6.5h-20.2Z"/>
            <path class="uuid-63ac22d5-acdb-42c4-b834-3929e1148342" d="M272.8,93.1l4-5.3c1.7,1.4,4.1,2.1,6.3,2.1s3.5-1,3.5-2-1-2-3.3-2-3.3.5-4.6,1.7l-5.1-1.2v-15h18.9v6.5h-11.4v3.5c1.2-1.1,3.1-1.9,5.1-1.9,4.2,0,8,3.1,8,8.1s-4.1,9-11,9-7.9-1.3-10.3-3.5Z"/>
          </g>
        </g>
      </g>
    </g>
  </g>
</svg>